<?xml version="1.0" encoding="utf-8"?>
<!-- Generator: Adobe Illustrator 24.3.0, SVG Export Plug-In . SVG Version: 6.00 Build 0)  -->
<svg version="1.1" id="Layer_1" xmlns="http://www.w3.org/2000/svg" xmlns:xlink="http://www.w3.org/1999/xlink" x="0px" y="0px"
	 viewBox="0 0 317.8 195.7" style="enable-background:new 0 0 317.8 195.7;" xml:space="preserve">
<style type="text/css">
	.st0{opacity:0.5;fill:#FFFFFF;}
</style>
<path class="st0" d="M68.7,193.5c0,0,205.2-1,204.8-1.8c-0.5-0.7-6.4-8.5-7.3-9.7c-0.9-1.1,0-41.5-0.2-47.7
	c-0.2-6.2-6.2-43.8-3.2-48.6c3-4.8,44.5-69.9,39.2-78.9c-5.8-0.8-12.4,9.2-48.4,19.3s-44.7,10.7-44.7,10.7s-25-5.2-52.3-4
	c-27.3,1.1-41.7,0-46.3-1.4C105.7,30,54.3,1.6,53.8,4.6l18.6,42.6c0,0,9.2,16.1,8.7,20.2c-0.5,4.1-12.8,23.8-12.6,45.4
	c0.2,21.6,0.7,42.6,0.2,44S67.1,191.4,68.7,193.5z"/>
<g>
	<path d="M317.8,191.5h-38c-3.3-3.3-6.4-6.4-9.5-9.5c0-1.9,0.1-3.9,0-5.9c-0.5-8.9,1.1-17.8-1-26.6c0.7-4.9-1.3-9.7-1.1-14.6
		c0.2-5,0.1-10,0.1-15c0-2.5,0-5,0-7.5c-0.1-3.2-1-6.2-1.8-9.3c-0.9-3.3-1.4-6.7-2.1-10.1c-0.5-2.1-0.2-4.4,1.2-6.4
		c2-2.9,3.9-6,5.7-9.1c1.5-2.5,2.6-5.3,4.3-7.7c3.4-4.9,6.2-10.1,9.1-15.3c4.9-8.7,8.9-18,13.1-27.1c0.3-0.6,0.3-1.2,0.5-1.8
		c1.2-3.8,2.6-7.6,3.7-11.5c0.6-2.1,1.2-4.3,1.2-6.5c0-1.7-0.8-3.5-1.2-5.4c-4.3,3.5-9.4,4.9-13.5,8.1c-1.6,1.2-3.4,2.2-5.2,3
		c-2.8,1.2-5.8,2.1-8.6,3.3c-3,1.2-5.9,2.6-9,3.7c-5.1,2-10.5,2.8-15.8,4.2c-3.3,0.9-6.6,1.6-9.8,2.7c-3.2,1.1-6.8,1.3-10.1,2.1
		c-4.6,1.2-9.2,2-13.7,3.2c-2.3,0.6-4.9,1.4-6.5,0.6c-2.7-1.3-5.9,0.3-8.3-1.8c-4.6,0.7-9-1-13.6-1c-25,0-50,0-74.4,0
		c-7.3-3.5-14.1-6.7-20.9-10c-6.8-3.3-13.7-6.5-20.3-10C65.3,6.9,58.3,4.1,51.2,0c0,1.4-0.2,2.2,0,2.9c0.8,2,1.8,3.9,2.7,5.9
		c3.2,7,5.5,14.4,9.2,21.2c-0.9,2.5,2.7,3.3,2,5.7c1.9,4.4,3.7,8.8,5.8,13.1c1.7,3.6,3.5,7.3,5.7,10.6c2.6,4.1,1.1,8.6,1.5,12.9
		c0.1,0.6,0,1.3,0,1.5c-1.5,2.7-3.2,4.9-3.9,7.4c-1.9,6.7-5.4,12.9-6.1,20c-1.8,2.5-1.9,5.3-2,8.2c-0.1,2.9-0.9,5.7-0.9,8.6
		c0.1,4.4-0.9,8.8,0.9,13.1c-0.6,5.7,0.9,11.4,0.9,17.1c0,2.7-0.7,5.4-0.9,8.1c-0.2,3,0,6,0,9c0,0.2,0.1,0.4,0,0.5
		c-1.7,2.4-1,5.1-0.9,7.6c0.1,2.7-0.8,5.5,0.8,8.2c0.6,1,0,2.9-0.5,4.2c-0.6,1.7-0.5,3.2,0.2,4.5c-0.6,2-2.1,1.4-3.4,1.4
		c-12.2,0-24.3-0.1-36.5,0.1c-8.6,0.1-17.3,0-25.9,0.2c0,1.3,0,2.6,0,3.8c15.8-0.1,31.5-0.3,47.3-0.2c34,0.2,68,0,102,0h168.4
		C317.7,194.2,317.7,192.9,317.8,191.5z M76.8,49.7C70.2,38.2,64.8,26,58.5,14.3c-0.6-1.1-0.9-2.2-1.8-4.4c2.1,1.4,3.4,2.1,4.5,3
		c5.1,4.7,10.2,9.3,15.1,14.1c5,4.9,9.9,9.9,14.9,14.8c1.6,1.6,3.1,3.2,3.1,6.1c-4.6,4.4-8,9.5-10.5,15.7
		C81.4,58.9,79.4,54.1,76.8,49.7z M267,190.5c-8.4,0.4-16.7,0.8-25.1,1c-8.5,0.2-17,0-25.5,0H191c-8.5,0-17,0-25.5,0
		c-1.9,0-3.7-0.4-5.9-0.7c0,0-0.4,0.4-1.1,0.9c0-0.8-0.3-1.6,0-1.8c1.7-1.2,3.5-2,5.1-3.3c3.3-2.5,6.5-5.2,9.8-7.7
		c2-1.6,4-3.1,6-4.7c-0.9-0.9-1.6-1.6-2.5-2.5c-8.3,5.7-17,10.9-24.9,19.1c-0.7,0.2-2.1,0.7-3.5,0.7c-25.3,0.1-50.6,0-76,0
		c-2.1-2-2-4.8-2.2-7.1c-0.5-4.6-0.7-9.4,0-13.9c0.5-3.2,0.6-6.4,0.9-9.7H74c0.1-1.9,0.2-3.7,0.3-5.4c-1.9-2.1-3-4.5-3.1-7.3
		c0-13-0.2-26,0.1-39c0.1-3.7,1-7.5,2.1-11.1c1.8-6.2,3.2-12.6,5.8-18.6c1.1-2.5,2.2-5.1,3.3-7.6c0.4-0.9,0.6-1.7,0.9-2.5
		c7.6-9.2,13.4-19.6,19-30c-1.2-1-1.2,0.3-2.1,0.4c-0.7-0.3-1.9-0.5-2.7-1.1C86.8,29.7,75.9,21,65.5,11.5c0.6,0.2,1.3,0.3,1.9,0.7
		c1.1,0.6,2,1.5,3.1,2.1c3.2,1.6,6.5,2.9,9.4,5.2c1.5,1.2,3.8,1.2,5.6,2.1c2.3,1.3,5.3,1.3,7,3.7c5.2,1.4,9.2,5,14,7.3
		c2.7,1.3,5.6,2,8.7,2c20.5,0,41,0,61.5,0c3.4,0,6.7-0.2,10.1,0.8c3,0.9,6.3-0.1,9.6,0.9c2.4,0.8,5.4,0.2,8,1.1c2,0.7,4.2,1,6.9,1.6
		c1.4-0.4,3.4-1.4,5.5-1.4c3.7,0,7-1.7,10.6-2.2c3.5-0.5,6.9-1.6,10.4-2.6c3.3-0.9,6.8-1.3,10.1-2.2c5.4-1.4,10.9-2.7,16.2-4.3
		c4.7-1.4,9.4-3,13.7-5.6c4.8-2.9,9.7-5.4,14.6-8.1c0.1-0.1,0.3,0,0.6,0c0.5,1.3-0.9,1.5-1.4,2.1c-0.4,0.6-1.4,0.7-2,1.1
		c-3.8,2.8-7.7,5.6-11.4,8.6c-8.6,7-18,12.5-27.9,17.2c-2.1,1-3.9,2.6-6.1,3.5c-5,2-9.3,5.5-14.8,6.6v3.2
		c8.2,9.3,17.8,18.5,21.6,20.7c0.8-2.2-0.4-3.8-1.5-5.2c-2.8-3.4-5.2-7.2-7.9-10.7c-1.1-1.5-0.7-3.6-2.5-4.7
		c7-2.7,12.9-7.1,19.2-10.8c6.1-3.5,11.9-7.7,17.5-11.9c3.8-2.9,7.8-5.7,11.3-9c3.5-3.2,7.1-6.2,10.9-9.5c0.2,1.3,0.4,2.4-0.3,4.1
		c-2.3,5.2-4.2,10.6-6.8,15.7c-2.4,4.8-4.2,9.9-6.8,14.7c-2.6,4.8-6,9.2-8.7,13.9c-4,7.1-9.3,13.4-13.1,20.6c-0.8,1.5-1.9,2.9-3,4.4
		c0,2.4-0.1,4.9,0,7.3c0.1,2,0.6,4.1,1,6.1c0.4,1.9-0.9,4,1,5.6c0.2,0.2,0,1,0,1.5c0,2.1,0,4.1,0.9,6.1c0.7,1.7-0.4,3.8,1,5.6
		c0.4,0.5,0.1,1.6,0.1,2.4v10.4c-1.9-1.2-3.2-2-5.2-3.3c0.3,1.4,0.3,2,0.5,2.5c2.2,3.9,4.1,8,5.1,12.3c0.7,3.1,0.2,6.4,0.1,9.7
		c0,0.9-0.5,1.8-0.6,2.7c-0.4,2,0.4,4-0.9,6.2c-1,1.6,0.3,4-1,6.1c-0.7,1.1,0,2.9-0.1,4.4c-0.2,2.2,0.4,4.4-0.8,6.7
		c-0.6,1.1,0.4,3,0.6,4.4c3.1,1.5,4.8,4.2,7.3,6.3C267.8,190.2,267.4,190.5,267,190.5z"/>
	<path d="M123.4,122.6c-3-0.2-5.7,0.4-8.3-1c-1.1-0.6-2.6-0.6-3.8-0.5c-1.2,0-2.5,0.5-3.7,0.7c1.4,2.1,2.8,4.2,4.5,6.7
		c3.3-0.5,6.6-2.1,10.1-3.3c3.3-1.1,6.6-2.2,10.9-3c-2,3.7-4.4,5.6-7.4,7.3c-1.4,0-3.2,0-4.4,0c-1.8,2.1-3.3,3.8-4.9,5.7
		c0.3,0.7,0.9,1.7,1,2.7c0.3,4.6,3.3,7,7.2,8.5c2.1,0.8,4.4,1.4,6.6,2.3c3.4,1.4,6.2,3.8,9,6c1.9,1.5,3.8,2.8,6.4,2.8
		c1.5,0,3,0.8,4.6,0.9c3.7,0.2,7.2-1.2,10.7-1.7c3.5-0.4,6.6-2,10.1-2.4c1.1-0.1,2.2-1.2,3.7-2.1c2,0.7,4.4,1.6,6.8,2.5
		c-0.1,0.6-0.1,0.9-0.2,1.4c-2.7,0-5.5,0-8.1,0c-3.1,3.1-7.1,3.7-10.7,5.2c-2.7,1.1-5.6,1-8.3,1.6c-3,0.6-6.2,0.4-9.3,0.4
		c-3,0.1-6,0-8.7,0c-2.1-1.3-4.3-2.1-5.7-3.7c-1.4-1.6-3.6-0.7-4.6-2.3c-3.1,0.7-6-1.1-9.1-1c-3,0.1-6-0.3-9,0.1
		c-3,0.4-5.9,1.7-9.3,2.6c-0.6-1-1.8-2.2-2-3.6c-0.3-2.8-1.5-4.7-4.2-5.7c-0.9-0.4-1.6-1.1-2-1.3c0.1-1.5,0.1-2.1,0.2-2.9
		c1.6,0,3,0,4.3,0c1.8,1.3,3.7,2.6,5.8,4.2c4.1-2.1,8.4-4.2,12.7-6.3c-0.7-3.3-1.4-6.3-2-9.3c-3.7-4.2-7.4-8.4-11.2-12.7
		c1.9-2.4,3.7-4.8,5.7-7.3c0.6,1.6,1.1,2.9,1.6,4.3c2.6,0,4.9,0,7.2,0C119.8,118.5,119.8,118.5,123.4,122.6z"/>
	<path d="M148.8,102.5c2.1-2.1,3.9-4.1,6-6c1.9-1.7,3.9-3.3,5.9-5c1.8-0.2,3.7,0.1,5.6-0.9c1.6-0.9,3.9,0.8,5.5-1.1
		c3.9-0.2,7.7,0.1,11.4,1.4c2.4,0.9,4.8,2,7.1,2.9c0,0.6-0.1,0.9-0.1,1.5c-2.4,0.3-5.1-0.3-7.1,1.7c-1.3,1.3-3,2.4-4.5,3.5
		c-1.1,0.9-2.2,1.8-3.5,2.4c-1.4,0.7-2.6,1.5-4.4,1.5c-5.6-0.2-11.3-0.1-16.9,0C151.9,104.6,150.5,103.8,148.8,102.5z"/>
	<path d="M111.1,92c0,0-0.3,0.4-0.5,0.8c1.2,2.3,0.4,4.9,0.8,7.8c-4.3-0.2-8.5,0.6-13-1.5c-3.7-3-6.8-7.4-9.2-12.8
		c0.3-0.4,0.8-1,1.4-1.6c5.9-0.9,10.8,1.3,15.2,4.6c0.8-0.3,1.7-0.6,2.2-0.8C109,89.7,110,90.8,111.1,92z"/>
</g>
</svg>
