<?xml version="1.0" encoding="utf-8"?>
<!-- Generator: Adobe Illustrator 24.3.0, SVG Export Plug-In . SVG Version: 6.00 Build 0)  -->
<svg version="1.1" id="Layer_1" xmlns="http://www.w3.org/2000/svg" xmlns:xlink="http://www.w3.org/1999/xlink" x="0px" y="0px"
	 viewBox="0 0 1309.1 1234.7" style="enable-background:new 0 0 1309.1 1234.7;" xml:space="preserve">
<style type="text/css">
	.st0{opacity:0.5;fill:#FFFFFF;}
</style>
<path class="st0" d="M450.3,1205.2c0,0,7.4-213.1,48.6-300.8s124.7-136.4,128.4-135.2c3.7,1.3,116.5-9.8,156.8-39.1
	c55,20.7,379.7,102.8,401.7,20.7c76.1,7.8,119.2-26.2,122.9-61.9c3.7-35.8-29.4-59.6-79.8-76.1c-50.4-16.5-89-49.5-114.6-85.3
	s-57.8-59-87.1-63c-8.3-33.3-34.9-69.8-57.8-83.2s-53.5-85-72.2-130.8c-18.7-45.9-108.5-166-175.5-209.1s-92.3-34.9-85.6-27.5
	s3.9,13.8,3.9,13.8S506.3-23,408.2,12.8S282.5,85.3,266,114.6s2.8,24.8-75.2,94.5S39.8,394.5,64.2,432
	c-1.8,19.3-58.7,186.2-43.1,199s16.5,8.8,16.5,8.8S-8.2,816.1,18.4,829c13.7,3.8,11.9-1.4,11.9-1.4s5.5,52.8,1.8,116.1
	C28.4,1007.1,7.3,1119,0,1134.6C22,1177.7,217.3,1286.8,450.3,1205.2z"/>
<g>
	<path d="M1292.4,689.5c-0.9-10.8-2.7-15.3-10.2-26c-3.8-5.2-6.9-9.8-6.9-10.2s-1.1-1-2.4-1.3c-1.4-0.3-8.6-4.6-16-9.5
		c-7.5-4.9-15.1-9.5-17-10.4c-1.9-0.9-5.3-2.8-7.6-4.3c-4.6-3.2-11-5-23.1-6.4c-13-1.7-16.2-3-33.4-13.7
		c-30.7-19.2-41.8-28.6-54.9-46.7c-21-29.3-52.2-58.3-82.1-76.6c-8.7-5.3-15.2-8.7-23.7-12.1c-6.1-19.9-20.6-53.7-51.6-71.5
		c-45.7-26.3-67.8-126.9-111-187.1S705.2,50.2,679.5,38.2c-25.7-11.9-16,6.8-16,6.8S492.8-6,398.1,34.3
		C303.5,74.5,277.8,130.7,277.8,136c0,5.4-9.5,26.8-35.2,46.8S114.1,296.9,87,369c-27.1,72.1,0,45.7,0,45.7S41.2,562.9,34.3,596.3
		c-6.8,33.5,14.6,28.2,14.6,28.2c0,0,0,0,0,0c0,0-32.2,139.9-28.1,170.9c4.1,31,13.8,14.6,13.8,14.6s17.3,72.6,7.9,175.7
		c-9.5,103-29.8,149.9-29.8,149.9l31.1-9.4c0,0,32.5-123.1,21.6-226.1c-3.9-37-7.8-62-11.3-78.9c-0.7-8.2-1.4-14-2.1-17.4
		c-1.6-8.5-5.2-15.7-8.7-17.1c0,0,4.4-79.8,22-138.4C83,589.6,83,589.6,83,589.6s-18.8,19.4-25.5,14.7c1.9-17.5,2.6-27.7,1.8-27.7
		c8.4-27.4,21.8-77.9,33.2-121.8c1.9-5.5,4.2-13.6,7.1-24.7c8.9-34.7,11.7-41.3,20.5-49.9c3-2.9,6.1-6.3,6.7-7.4
		c0.6-1.2,4-5.7,7.7-10.2c6.2-7.8,9.9-14.1,8.8-15.2c-1-1-9.2,5.6-19.2,15.3c-11.7,11.5-11.8,11.4-5.4-5.5
		c5.9-15.9,24.8-52.1,27.9-53.8c1-0.5,2.3-2.1,2.8-3.6c0.6-1.6,6.2-8.7,12.5-15.9c6.3-7.2,14-16.4,16.9-20.4c3-4,7.3-8.8,9.3-10.6
		c28.9-25.7,52.3-46.9,70.4-63.3c2-1.5,3.9-3,5.6-4.3c4.9-3.6,9.1-7.4,9.5-8.5s2.3-2.5,4-3.3c3.6-1.5,17.3-15.2,25.1-24.9l0,0l0,0
		c1.4-1.7,2.6-3.2,3.5-4.6l4.7-6.8l17.9-6.6c19.5-7.3,19.8-7.8,4.8-8.1c-3.8,0-7.4-0.6-7.7-1.1c-0.8-1.3-5.5-1.3-8.8,0
		c-0.7,0.3-1.3,0.4-1.7,0.3c6.6-10.1,16.2-22,30.2-33.3c10.4-6,26.6-14.1,34.8-17.2c4-1.5,8.6-3.7,10-4.9c1.5-1.2,5.7-3.1,9.3-4.3
		c3.6-1.3,10-3.9,14.1-5.9c3.4-1.7,6.7-3.1,10.1-4.3c0,0,0,0,0,0c10.4-2.4,20.6-4.4,30.6-6c6.6-0.5,14.2-0.8,23.2-1
		c25.4-0.5,33.2-0.1,91.4,4.6c13.3,1.1,28.3,1.9,33.5,1.9c8,0,10.4,0.4,15,2.4c5.5,2.4,11.1,3.9,33.1,8.8c0.3,0.1,0.6,0.1,0.9,0.2
		c13.2,4.6,23.7,9.1,31,12.6c1.1,0.6,2.3,1.3,3.5,2c3.4,1.8,6.6,3.4,8.9,4.5c0,0,0,0,0,0s0,0,0,0c2,0.9,3.4,1.4,3.7,1.2
		c0.5-0.3,1-1.5,1-2.6c0-2.3,1.2-2,8.7,2.4c13.4,7.9,32.8,25.1,52.8,45.7c20.2,22.6,36.8,41.4,50.9,58.8c6.9,9.1,13,17.8,18.1,25.9
		c9.9,15.9,13.3,23.3,13,29c-0.3,4.9-0.2,5.1,2.4,5.2c3.4,0.2,6.7,3.3,12,11.3c7.6,11.3,13.1,23.1,29.1,62.7
		c21.2,52.3,39,79.8,66.4,102.4c17.7,14.7,25.3,23.2,29.1,33.3c4.2,11,4.2,25.6,0,34.4c-1.1,2.1-2.2,6.2-2.6,8.9
		c-1.9,14.8-14,22.3-35.9,22.3c-9.9,0-11.8-0.3-15.6-2.2c-6.8-3.6-11.5-7.7-23.8-21L893,486.8l1.5-2.8c1.8-3.3,1-12.7-1-12.1
		c-1.6,0.5-3.5,4.7-3.5,7.7c0,2-0.5,2.7-1.9,2.7c-3.6,0-4.4-2.4-3.1-9.5c1.3-7.3,0.8-10.7-1.5-8.9c-0.8,0.6-1.4,2-1.4,3.2
		c0,1.2-0.6,3-1.4,4c-1.3,1.8-1.6,1.8-9.1-1.8c-4.2-1.9-8.8-3.6-9.9-3.6c-3.9,0-13.2,4.1-17.1,7.6c-8.3,7.4-9.4,13.5-6.7,35.8
		c1.5,12.8,1.8,17.7,1,22.3c-0.9,5-0.7,6.3,0.7,8.9c1.5,2.8,1.6,3.8,0.4,8.8c-0.7,3.1-1.6,7.1-1.8,8.8c-0.3,1.8-0.8,3.2-1.3,3.2
		c-0.4,0-3.9,2.9-8,6.4c-4,3.5-11.1,8.9-15.7,12.1c-30.3,20.4-44,38.9-44.1,59.3c0,8.1-1,9.5-11.2,16c-9.1,5.8-11.7,8.4-13.9,13.3
		c-2.2,5.2-1.9,8.1,1.9,20.4c1.1,3.9,2,7.1,2.7,9.7c-21.6,10.5-66.6,26.6-148.8,34.4c-84.5,8-149.2-22.1-183-43.1
		c-1.4-1.3-2.9-2.7-4.4-4.1c-18.4-17.2-21.8-19.5-21.8-14.8c0,1,1.1,3.2,2.5,5c1.9,2.5,2.2,3.7,1.4,5.1c-0.5,1.1-1.3,1.8-1.8,1.8
		c-2,0-6,5-6,7.3v2.6l2.5-2.9c2.9-3.3,8.8-6.4,10.9-5.6c2.8,1.1,1.3,3.4-5,7.9c-5.8,4-7.8,6.3-5.6,6.3c0.4,0,3.5-1.8,6.9-3.9
		c6.4-4.2,9.9-4.9,12.1-2.3c1.1,1.4,1,1.8-1.3,3.7c-1.4,1.1-4.3,3.1-6.5,4.4s-4.4,3.3-5,4.6s-0.9,2.3-0.6,2.3c0.2,0,4-2.1,8.6-4.9
		c4.5-2.6,8.5-4.9,8.8-4.9c0.4,0,1.2,1.4,1.9,2.9c1.4,3.3,1.7,2.8-8.3,13.3c-2.2,2.3-3.6,4.5-3.2,4.8c1,1,4.6-1.2,11.2-6.5
		c6.2-5.2,6.8-5.3,10.6-3.6c3.5,1.6,3,3-2.5,7.7c-4.2,3.6-6.8,7.1-5.7,8.2c0.2,0.2,2.9-1.8,6.2-4.5c6.3-5.1,11.3-6.8,13.9-4.7
		c1.4,1.1,1.2,1.4-1.3,2.6c-4.8,2.5-8.7,5.8-12,10.4c-1.8,2.4-2.9,4.4-2.4,4.4c0.4,0,3.6-2.3,7.2-5.2c7.4-5.8,12.8-8.5,16.5-8.1
		c1.3,0.8,2.6,1.6,3.9,2.5c1.1,1.8,0.4,2.6-8.1,9.8c-5.1,4.4-9.3,8.4-9.3,8.9s1,0.4,2.2-0.4c1.3-0.8,6.6-4,11.9-7.1
		c8.8-5,9.9-5.4,11.2-4.1c1.4,1.4,1.1,1.9-3.1,6.4c-2.7,2.7-4.5,5.3-4.2,5.5c0.3,0.2,2.7-1.2,5.2-3.1c5.5-4.1,8.7-6.1,11.4-6.8
		c2,0.9,4,1.8,6.1,2.7c-1,2.1-3.9,5.5-9.1,10.7c-3.7,3.9-6.6,7.2-6.4,7.4c0.7,0.7,5.6-2.7,11.3-8.1c4.7-4.3,7.3-6.6,9.6-7.9
		c2.7,1,5.4,2.1,8.2,3l-5.5,5.5c-5.3,5.5-10.2,9.9-10.9,9.7c-0.6-0.1-2.3,1-3.7,2.4c-3.1,3.1-10.7,15.6-10.2,16.8
		c0.2,0.5,3.1-2.6,6.7-6.9c4.4-5.3,7.6-8.3,10.1-9.3c2.6-1.1,6.7-4.7,12.2-10.9c2-2.3,3.9-4.3,5.5-6c2.7,0.9,5.5,1.7,8.4,2.6
		l-3.4,3.1c-3.8,3.6-12.5,11.7-19.4,18c-13.7,12.5-25.5,27.9-21.4,27.9c0.4,0,2.8-3,5.2-6.6c6.6-9.7,14-17.2,31.1-31.4
		c6-4.9,9.7-8,12.2-9.8c3,0.8,6.1,1.6,9.3,2.3c-1.2,1.8-4.2,4.8-10,10.5c-6.5,6.4-12.2,11.7-12.8,11.7c-0.5,0.1-2.2,2.5-3.7,5.6
		c-1.5,3-4.9,9.6-7.6,14.7c-5.3,9.9-6.5,15.6-2.9,13.7c1.4-0.7,2-2,2-4.2c0-3.2,2.6-7.6,8.9-15.4c4.7-5.7,6.1-8.4,5.4-11
		c-0.5-1.8,1.3-3.8,10.3-11.9c8-7.1,12.5-10.7,16.7-12.5c7.2,1.5,14.7,2.8,22.5,3.9c-1.1,0.4-2.5,1.1-4.3,2c-2.6,1.4-7.3,5-10.3,8.1
		c-10.9,10.9-21.7,23.3-21.7,24.9c0,1.8-4.8,11.2-8.8,17c-4,5.8-3.9,8.4,0.2,3.8c3.2-3.7,11.4-16.7,14.7-23.7
		c2.3-4.5,18.2-20.3,27-26.7c3.1-2.3,5-4,5.7-5c1.3,0.2,2.6,0.3,3.9,0.5c-0.8,1-2,2.3-3.4,3.7c-7.8,8.1-28.7,33.1-28.6,34.2
		c0,0.6,5.2-4.4,11.5-11.1c17-18,22.9-24.1,26.4-26.2c2.5,0.2,4.9,0.5,7.4,0.7c-0.8,0.8-2.2,2-3.7,3.1c-6.3,4.8-20,19.2-29.1,30.4
		c-4.2,5.3-7.7,9.7-7.7,10c0,0.2,0.9,0.4,1.9,0.4c1.2,0,3.1-1.8,5.2-4.9c1.1-1.5,4.4-5.3,8.5-9.6c-28.4,36.7-66.3,96.5-87.6,168
		c-35.5,119.1-26,240.9-26,240.9s18.3,14.9,18.9-7.3c0.1-3,2.5-153,34.8-253.9c2.6-0.5,6.8-4.9,7.7-8.4c4.4-16.2,7.4-26.9,10.3-35.4
		c44.2-83,98-120.4,124-132.7c12.3-0.6,25.1-1.7,38.3-3.4c93.4-11.7,116.5-37.7,120.7-37.1v0c17.6,2.6,45.1,8,100.8,20
		c125.2,26.9,175,34.7,223.2,34.8c29.1,0,48.6-3.7,60.3-11.5c5.3-3.6,10.6-9.9,11.6-13.8c0.4-1.3,0.9-2.2,1.3-2.2
		c0.3-0.1,2.6-0.5,5-1.1c2.5-0.5,12.4-1.4,22.1-1.8c32.6-1.7,37.5-2.2,40-4.6c1.3-1.2,5.8-3.2,10.1-4.7
		c11.9-3.9,26.3-11.8,33.4-18.2C1291.6,703.3,1293.3,699.6,1292.4,689.5z M729.1,95c-0.2-0.2-0.3-0.3-0.5-0.5
		C728.7,94.7,728.9,94.9,729.1,95z M886.6,314.1c4.6,11.3,8.3,20.9,11.7,29.5C894.7,336,891.1,326.8,886.6,314.1z"/>
	<path d="M717.3,326.9c-1-5.8-1.5-7-2.9-7c-0.9,0-1.4,1.1-1.4,2.8c0,4.9-1.6,4.2-4.3-1.8c-2.9-6-6.4-9.7-9.4-9.7c-1,0-2-1-2.4-2.2
		c-0.3-1.2-1.9-3.5-3.5-5.1c-2.5-2.3-3.2-2.6-3.9-1.5c-0.7,1.2-1.6,0.9-4.6-1.6c-23.7-18.7-51.2-27.3-75.5-23.7
		c-19.7,2.9-36.6,11.4-54.8,27.5c-8.5,7.4-8.7,7.7-8.7,12c0,4,0.2,4.3,2.8,4.3c5.4,0,13.2,5.9,30.2,22.9
		c9.1,9.2,18.3,17.7,20.2,18.9c2,1.2,5.1,2,7.5,2c2.5,0,4.6,0.6,5.3,1.5c0.9,1.1,3.2,1.5,8.8,1.5c4.1,0,9.3,0.5,11.7,1
		c3.2,0.8,4.8,0.7,7.1-0.5c1.6-0.8,6.1-2.6,10-4c3.9-1.5,9.3-4.1,12.1-5.8c2.7-1.8,6-3.3,7.5-3.3c6.5,0,19.9-5.5,25.9-10.8
		c3.5-3,4.7-3.1,11.5-1.3c1.3,0.4,1.8-0.6,2.3-4.7c0.7-4.6,0.9-5,2.1-3.4c0.7,1,2.3,5.3,3.4,9.7c1.2,4.4,2.8,9,3.4,10.4
		c1.3,2.3,1.3,2.3,2-2.2c0.9-5.4,1.8-5.3,3.4,1c0.7,2.6,1.4,5.4,1.7,6.4c0.2,0.9,0.9,1.4,1.5,1.1c2.1-1.3,0.1-11.6-4-21.2
		C719.7,334.6,717.7,328.8,717.3,326.9z"/>
	<path d="M544.9,293.5c-6.5,5.1-11.7,11.6-13.9,17.2c-3.2,8.8-2.4,13.3,1.5,7l1.9-3.1l1.1,2.7l1.2,2.7l2-2.7c1.1-1.6,5.2-7.5,9-13.3
		c4.2-6.1,8.3-11,9.8-11.9c2.9-1.5,4-3.2,4-6.4c0-3-1.5-2.2-6.3,3.5c-2.6,2.9-6,6.2-7.7,7.5c-3.2,2.2-2.9,1,0.5-2.8
		C551.2,290.4,549.2,290.2,544.9,293.5z"/>
	<path d="M530.7,302.4c-0.7,0-2.5,1.2-3.8,2.6c-3.8,4.1-5.3,6.8-8.7,15.8c-3.3,9.1-3.4,12.9-0.1,5.4c1.2-2.6,4.2-8.1,6.9-12.2
		C531.7,303.6,532.4,302.4,530.7,302.4z"/>
	<path d="M519.7,305.5c-4.1,2.2-7.7,6.3-11,12.8s-3.6,8.8-1,6.5c0.8-0.6,4.8-5.4,8.9-10.8C523.8,305,524.6,302.8,519.7,305.5z"/>
	<path d="M501.7,316.5c-3.6,3-7.4,10.3-6.9,13.3c0.3,2,0.5,1.9,2.2-1.2c1-1.8,3.5-5.6,5.6-8.4c2.2-2.7,3.8-5.3,3.8-5.5
		C506.5,313.3,504.6,314.1,501.7,316.5z"/>
	<path d="M484.8,328.6c1.1-1.4,2.6-3.2,3.3-4.2c0.9-0.9,1.6-2.3,1.6-3.1c0-2.3-2.7-1.7-4.8,1.2c-2.4,2.9-3.6,6.8-2.6,7.9
		C482.8,330.8,483.8,330,484.8,328.6z"/>
	<path d="M471.4,332c2.1-4.9,2-7-0.5-6.5c-0.9,0.2-2.3,2.2-3.1,4.8c-2,5.6-2,6.1,0.2,6.1C469,336.4,470.2,334.8,471.4,332z"/>
	<path d="M460.1,331.9c-0.9-0.1-1.9,0-2.2,0.3c-0.7,0.7,2.6,6.1,3.6,6.1C463.2,338.3,461.7,332.2,460.1,331.9z"/>
	<path d="M737.1,376.3c0.8,0,1.4-0.4,1.4-0.9c0-2.5-4.2-22.3-5.9-27.6c-2-6.1-5.1-11.8-6.1-10.9c-0.3,0.3,1.7,9.3,4.4,19.9
		C734.3,370.3,736.2,376.3,737.1,376.3z"/>
	<path d="M738.5,344.9c0,5.1,2.4,16.9,5.3,27.3c2.4,8.1,3,9.7,4,8.8c1.2-1.2-6.6-37.2-8.5-39.2C738.9,341.3,738.5,342.5,738.5,344.9
		z"/>
	<path d="M752.2,368.5c-3.6-13.4-4.7-15.8-4.8-10c0,7.1,4.6,25.2,7.9,30.1C757.1,391.5,755.4,380.8,752.2,368.5z"/>
	<path d="M765,391.2c0-6.3-2.8-17-5.3-20.3c-0.9-1.1-1.6-1.7-1.6-1.2c-0.1,3.7,3.3,21,4.9,23.8l1.9,3.6L765,391.2z"/>
	<path d="M778.7,390.6c-1.6-5.6-2.9-4.3-2.9,3.1c0,4.5,0.5,7,1.4,7.8C779.8,403.6,780.7,397.4,778.7,390.6z"/>
	<path d="M790.6,414.7l-0.3-6.7c-0.1-4.4-0.6-6.9-1.4-7.2c-0.9-0.2-1.3,0.7-1.3,2.4c0,1.5-0.3,3.6-0.6,4.8c-0.3,1.2,0.3,2.8,1.5,4.4
		L790.6,414.7z"/>
	<path d="M860.2,462.7c0.8,2.1,0.8,2.1,2.6,0.3c0.9-1.1,2.1-4.7,2.6-8s1.6-6.9,2.6-7.9c1.6-1.8,1.6-1.8-0.4-1.8
		c-1.1,0-2.3-0.4-2.6-0.9c-1.6-2.3-4.6-1.8-7.4,1.5c-2.8,3.4-5,9-5,12.9c0,3.6,1.7,2.2,5-4.3c1.9-3.5,3.7-6.3,4.1-6.3
		c0.5,0,0.6,0.4,0.2,0.9C860.6,451.2,859.4,460.7,860.2,462.7z"/>
	<path d="M874.2,463.4c0-0.9,0.9-2.9,2-4.7c2.4-3.9,2.5-6.2,0.4-7c-2.2-0.8-2-0.9-4.2,2c-3.9,4.8-4,10.3-0.3,10.8
		C873.5,464.8,874.2,464.4,874.2,463.4z"/>
	<path d="M365.5,639.8c-2.2,0-2.6,0.5-2.6,2.6c0,1.6,0.9,4.1,2,5.8c2.3,3.7,10.1,9.6,10.6,8.1c0.2-0.6-0.2-3.2-0.8-5.8
		C373.3,644.7,369.1,639.8,365.5,639.8z"/>
	<path d="M486.4,804.2c2-4,4.8-9.9,6.5-13c6.2-12.4,25.4-33.2,34-37c2.3-1,4.1-2.2,4.1-2.7c0-1.4-3.3-0.9-7.9,1.4
		c-6.5,3.2-16.2,13.4-24.3,25.5c-7.6,11.1-20.5,35.4-19.6,36.4C480.2,815.6,482.6,812.2,486.4,804.2z"/>
	<path d="M476.3,772.3c-3.3,3.5-13.7,23.1-12.2,23.1c0.9,0,16.8-24.3,16.8-25.7S479.1,769.4,476.3,772.3z"/>
	<path d="M450.2,777.7c-0.3-0.8-1.1-0.1-2.1,1.8c-0.9,1.7-1.3,3.3-0.8,3.6C448.5,783.9,450.8,779.5,450.2,777.7z"/>
	<path d="M494.9,828.4c2.9-6.1,18.3-29.1,19.6-29.1c0.5,0,0.9-1.1,0.9-2.4c0-1.4-0.3-2.4-0.7-2.4c-0.5,0.1-2.7,2.3-4.8,5.2
		c-6.5,8-11.8,16.7-15.1,24.6C491,832.8,491.2,836.3,494.9,828.4z"/>
	<path d="M476.1,810c-1,0-2.8,1.1-3.9,2.3c-2.4,2.4-9.1,19.7-8.1,20.4c0.3,0.2,3.5-4.8,7.2-11.2C476.5,812.4,477.5,810,476.1,810z"
		/>
	<path d="M472,844.1c0,0.5,0.8,0.8,1.9,0.7c1.5-0.1,2-1.1,2.4-5.1c0.8-7.5,4.1-14.5,7.5-15.8c3.6-1.4,6.2-5.3,5.8-8.8
		c-0.2-1.8-0.6-2.3-1.1-1.5c-0.5,0.7-1.6,1.1-2.4,1c-2.7-0.5-6.9,6.7-10.6,18C473.6,838.5,472,843.6,472,844.1z"/>
	<path d="M485.9,830.2C483.2,836,475,856,475,856.8c0,2.2,2.4,0.4,5.4-4.4c3.3-5.3,6.8-14.6,7.8-21.3
		C488.8,826.9,487.6,826.5,485.9,830.2z"/>
	<path d="M469.3,850.9c0,1.8,0.2,2.6,0.5,1.7c0.2-0.9,0.2-2.4,0-3.4C469.5,848.3,469.3,849,469.3,850.9z"/>
</g>
</svg>
